Coordinates
version=1
nRows=14
nColumns=24
inDegrees=yes

Units are S.I. units (second, meters, Newtons, ...)
Angles are in degrees.

endheader
time	pelvis_tilt	pelvis_list	pelvis_rotation	pelvis_tx	pelvis_ty	pelvis_tz	hip_flexion_r	hip_adduction_r	hip_rotation_r	knee_angle_r	ankle_angle_r	subtalar_angle_r	mtp_angle_r	hip_flexion_l	hip_adduction_l	hip_rotation_l	knee_angle_l	ankle_angle_l	subtalar_angle_l	mtp_angle_l	lumbar_extension	lumbar_bending	lumbar_rotation
      0.84133333	      1.45456852	      0.70424204	     -1.47656205	     -0.24468882	      1.02298690	      0.37038011	     -3.29044596	      1.75448273	      0.58768425	    -15.13868146	     11.05815321	     -5.99066523	      2.00660816	     19.12279021	      1.74190479	     -2.41558603	    -47.27605713	      6.83192699	     -9.73867829	     -0.07389981	    -13.83342433	      5.78372693	      3.80985252
      0.84550000	      1.43063379	      0.75054114	     -1.46409223	     -0.23967203	      1.02342779	      0.37039576	     -3.71026232	      1.69309530	      0.55476436	    -14.81478449	     10.78482020	     -6.01558698	      2.03062386	     19.25176571	      1.86281653	     -2.33141198	    -45.85704211	      6.98928750	     -9.72069110	     -0.12196538	    -13.83531653	      5.69856378	      3.87969044
      0.84966667	      1.43965235	      0.77546268	     -1.43922110	     -0.23464520	      1.02387019	      0.37039991	     -4.18562807	      1.65831394	      0.53905531	    -14.45005616	     10.53389571	     -6.08134550	      2.08125923	     19.33102871	      1.96466747	     -2.22981818	    -44.41005249	      7.08482472	     -9.75052275	     -0.19918930	    -13.89098239	      5.64553550	      3.95902856
      0.85383333	      1.39181356	      0.80741856	     -1.41561175	     -0.22963051	      1.02419131	      0.37038496	     -4.56209754	      1.61022207	      0.46329470	    -14.16143876	     10.23851147	     -6.08582529	      2.11738109	     19.45904897	      2.07033144	     -2.13415742	    -42.93343673	      7.15676353	     -9.71186838	     -0.24902718	    -13.86935432	      5.58458046	      3.99977376
      0.85800000	      1.36994047	      0.83726241	     -1.38235273	     -0.22459601	      1.02453011	      0.37036223	     -4.98420668	      1.56847141	      0.41311281	    -13.83971999	      9.98609368	     -6.11310301	      2.17534955	     19.53244256	      2.18400389	     -2.00377370	    -41.40487326	      7.14773243	     -9.75740897	     -0.31581600	    -13.87698345	      5.52247939	      4.03781272
      0.86216667	      1.36301605	      0.86773231	     -1.34427771	     -0.21954530	      1.02486235	      0.37031272	     -5.42311634	      1.52257993	      0.33647560	    -13.51431682	      9.72229297	     -6.12861557	      2.25120558	     19.56902717	      2.29730873	     -1.87907370	    -39.83954857	      7.10079641	     -9.79667003	     -0.38918462	    -13.91778040	      5.48559713	      4.06313596
      0.86633333	      1.32032527	      0.89237544	     -1.30317128	     -0.21450098	      1.02508150	      0.37026262	     -5.80054512	      1.48360715	      0.23911788	    -13.24093030	      9.46623063	     -6.12650525	      2.33769442	     19.63008519	      2.40357754	     -1.74224904	    -38.24857372	      7.00992773	     -9.83536353	     -0.46099993	    -13.89760782	      5.43727830	      4.07835459
      0.87050000	      1.28103636	      0.91218675	     -1.25713400	     -0.20943409	      1.02529344	      0.37019482	     -6.18488575	      1.45045746	      0.13669033	    -12.96165534	      9.20431667	     -6.12430467	      2.43614963	     19.66316010	      2.50651696	     -1.59545931	    -36.61710633	      6.87325001	     -9.88016035	     -0.53218321	    -13.88811500	      5.40166103	      4.08358195
      0.87466667	      1.23228279	      0.92325337	     -1.20517465	     -0.20437093	      1.02542791	      0.37011917	     -6.54939131	      1.42755897	      0.01971980	    -12.70555364	      8.95084232	     -6.11223098	      2.54182790	     19.69422218	      2.59734893	     -1.44709453	    -34.96824179	      6.70939237	     -9.90870427	     -0.59815959	    -13.86641522	      5.37474955	      4.08021154
      0.87883333	      1.15461978	      0.93701276	     -1.15662745	     -0.19928439	      1.02550023	      0.37003463	     -6.87373161	      1.40025018	     -0.10664274	    -12.46714411	      8.69202099	     -6.09299735	      2.63345255	     19.73555272	      2.68411564	     -1.31786182	    -33.29004098	      6.52039100	     -9.90495727	     -0.64953130	    -13.82185985	      5.36537412	      4.07828867
      0.88300000	      1.13298593	      0.94127095	     -1.10184123	     -0.19417893	      1.02562229	      0.36995477	     -7.26523537	      1.38675158	     -0.22838249	    -12.22067204	      8.44229324	     -6.08409001	      2.75951814	     19.68545680	      2.76884166	     -1.15089841	    -31.56031215	      6.25838038	     -9.98543065	     -0.70959570	    -13.81807776	      5.33413161	      4.06021781
      0.88716667	      1.08046016	      0.93170709	     -1.04617012	     -0.18905033	      1.02565566	      0.36986346	     -7.61515777	      1.38809836	     -0.35928715	    -11.99361862	      8.19936262	     -6.06663229	      2.91061344	     19.65614017	      2.83060164	     -1.00585732	    -29.82369394	      5.98566832	    -10.02804721	     -0.76806639	    -13.77415733	      5.33150133	      4.04304330
      0.89133333	      1.02985322	      0.92886874	     -0.99360173	     -0.18391048	      1.02564308	      0.36976829	     -7.95581562	      1.38126121	     -0.49678489	    -11.79240432	      7.96102738	     -6.03983359	      3.07572948	     19.60510825	      2.89614275	     -0.86897571	    -28.06321233	      5.69073482	    -10.05390893	     -0.82104183	    -13.74514551	      5.32568122	      4.02125647
      0.89550000	      0.99286472	      0.91993126	     -0.93554759	     -0.17873095	      1.02561603	      0.36965129	     -8.31943274	      1.38078783	     -0.64340436	    -11.57710102	      7.75292369	     -5.98681961	      3.33108312	     19.51845064	      2.95514357	     -0.73553746	    -26.28186227	      5.36251242	    -10.10132037	     -0.88201068	    -13.71672737	      5.34512668	      4.00250161
